# xmcd
#
# Track frame offsets:
# 150
# 17789
# 31331
# 48921
# 63173
# 75802
# 93892
# 113974
# 128856
# 147475
# 164022
# 184474
# 198424
# 212791
#
# Disc length: 3014 seconds
#
#
# Revision: 2
# Processed by: cddbd v1.4PL0 Copyright (c) Steve Scherf et al.
# Submitted via: FreeRIP 2.00 
#
DISCID=c10bc40e
DTITLE=Ilse De Lange - World Of Hurt
DYEAR=1900
DGENRE=Country
TTITLE0=Flying Blind
TTITLE1=Lonely Too
TTITLE2=Just Like The Moon
TTITLE3=What Does Your Heart Say Now
TTITLE4=I'd Be Yours
TTITLE5=World Of Hurt
TTITLE6=All The Woman You'll Ever Need
TTITLE7=If You Had The Heart
TTITLE8=Flying Solo
TTITLE9=Old Tears
TTITLE10=I'm Not So Tough
TTITLE11=When We Don't Talk
TTITLE12=Tap Dancing On The Highwire
TTITLE13=You Are The Dream
EXTD=
EXTT0=Rob Crosby/Shelly Bauerly/Ilse DeLange\n
EXTT1=Bruce Robison
EXTT2=Tia Sillers/Kim Richey
EXTT3=Rob Crosby/Ilse DeLange
EXTT4=Philip Coleman
EXTT5=Bill Lloyd/Beth Nielsen-Chapman
EXTT6=Eric Silver/Stephanie Bentley
EXTT7=Bob Morrison/Michael Huffman/Donny Kees
EXTT8=Robin Lerner/Stephen Allen Davis
EXTT9=Allen Rich/Doug Millett/Beth Nielsen-Chapman
EXTT10=Hillary Lindsey/Bruce Bouton/Robert Ellis Orrall
EXTT11=Rob Crosby/Ilse DeLange
EXTT12=Georgia Middleman
EXTT13=Liz Hengber/Rob Crosby/Ilse DeLange
PLAYORDER=
